<svg width="512" height="512" viewBox="0 0 512 512" fill="none" xmlns="http://www.w3.org/2000/svg">
<g clip-path="url(#clip0)">
<path d="M425.599 377.621V116.397L6.32813 134.377V395.601C6.32713 401.587 9.28913 407.572 15.2131 410.993L181.304 506.886C193.117 513.706 207.67 513.706 219.483 506.886L416.715 393.014C422.638 389.593 425.6 383.607 425.599 377.621Z" fill="url(#paint0_linear)"/>
<path d="M15.2134 118.987L212.445 5.115C224.258 -1.705 238.811 -1.705 250.623 5.115L416.714 101.008C428.561 107.848 428.561 124.948 416.714 131.788L219.482 245.659C207.669 252.479 193.116 252.479 181.304 245.659L15.2134 149.767C3.36637 142.927 3.36637 125.827 15.2134 118.987V118.987Z" fill="url(#paint1_linear)"/>
<path d="M79.166 82.064L291.002 204.368L347.194 171.925L135.358 49.622L79.166 82.064Z" fill="#DEA861"/>
<path d="M112.751 62.657L324.587 184.961L313.58 191.316L101.744 69.012L112.751 62.657Z" fill="#CC8241"/>
<path d="M291.002 204.368V250.774L347.194 218.331V171.925L291.002 204.368Z" fill="#CC8241"/>
<path d="M500.413 198.225C499.487 197.525 498.5 196.982 497.482 196.56L457.073 173.606C450.545 168.671 441.148 170.779 437.353 178.03L362.005 323.12L361.203 322.514C358.805 320.701 356.176 319.473 353.469 318.733L353.448 318.694L317.863 297.895C315.923 296.428 313.829 295.347 311.668 294.586L311.591 294.542L311.6 294.56C301.275 290.963 289.326 295.209 283.938 305.504C278.773 315.372 281.499 327.527 290.384 334.244L358.946 386.075L402.285 410.694L504.159 214.932C507.164 209.195 505.578 202.129 500.413 198.225V198.225Z" fill="url(#paint2_linear)"/>
<path d="M361.203 322.514C358.805 320.701 356.176 319.473 353.47 318.733L353.449 318.694L317.864 297.895C315.924 296.428 313.83 295.347 311.669 294.586L311.592 294.542L311.602 294.56C301.277 290.963 289.328 295.209 283.94 305.504C278.775 315.372 281.501 327.527 290.386 334.244L358.947 386.075L402.286 410.694L361.203 322.514Z" fill="url(#paint3_linear)"/>
<path d="M401.986 353.972L402.458 354.329L402.731 353.804L481.136 202.881C484.788 195.904 493.829 193.875 500.112 198.624C505.082 202.381 506.607 209.18 503.718 214.699L503.718 214.7L402.117 409.937L334.027 358.463C325.338 351.895 322.671 340.005 327.722 330.355L327.279 330.123L327.722 330.355C334.108 318.156 349.919 314.609 360.903 322.913L401.986 353.972Z" fill="#87E200" stroke="#88BF36"/>
</g>
<defs>
<linearGradient id="paint0_linear" x1="166.882" y1="314.199" x2="224.477" y2="314.199" gradientUnits="userSpaceOnUse">
<stop stop-color="#CC8241"/>
<stop offset="1" stop-color="#DEA861"/>
</linearGradient>
<linearGradient id="paint1_linear" x1="99.2384" y1="57.996" x2="314.928" y2="182.524" gradientUnits="userSpaceOnUse">
<stop stop-color="#DEA861"/>
<stop offset="1" stop-color="#EBCBA0"/>
</linearGradient>
<linearGradient id="paint2_linear" x1="437.587" y1="194.447" x2="450.693" y2="171.746" gradientUnits="userSpaceOnUse">
<stop stop-color="#66AB00"/>
<stop offset="1" stop-color="#A7FF23"/>
</linearGradient>
<linearGradient id="paint3_linear" x1="347.036" y1="351.285" x2="357.574" y2="333.032" gradientUnits="userSpaceOnUse">
<stop stop-color="#ADFF33"/>
<stop offset="1" stop-color="#6BB300"/>
</linearGradient>
<clipPath id="clip0">
<rect width="512" height="512" fill="white"/>
</clipPath>
</defs>
</svg>
