<svg width="512" height="512" viewBox="0 0 512 512" fill="none" xmlns="http://www.w3.org/2000/svg">
<g clip-path="url(#clip0)">
<path d="M393.659 370.192V124.925L2.6959e-07 141.806V387.072C-0.00099973 392.692 2.78 398.312 8.342 401.524L164.287 491.558C175.378 497.961 189.043 497.961 200.133 491.558L385.316 384.643C390.879 381.432 393.66 375.812 393.659 370.192V370.192Z" fill="url(#paint0_linear)"/>
<path d="M8.34225 127.357L193.526 20.441C204.617 14.038 218.281 14.038 229.372 20.441L385.317 110.476C396.441 116.898 396.441 132.954 385.317 139.376L200.133 246.291C189.042 252.694 175.378 252.694 164.287 246.291L8.34225 156.256C-2.78075 149.834 -2.78075 133.779 8.34225 127.357V127.357Z" fill="url(#paint1_linear)"/>
<path d="M68.3867 92.69L267.283 207.522L320.043 177.061L121.147 62.229L68.3867 92.69Z" fill="#DEA861"/>
<path d="M99.9209 74.468L298.817 189.3L288.482 195.267L89.5859 80.435L99.9209 74.468Z" fill="#CC8241"/>
<path d="M267.283 207.522V251.093L320.043 220.632V177.061L267.283 207.522Z" fill="#CC8241"/>
<path d="M480.749 184.969L480.754 184.959L439.685 161.316L439.682 161.322C423.47 152.732 402.645 153.955 379.925 167.073C328.232 196.918 286.326 276.987 286.326 345.912C286.326 383.806 299.009 410.406 319.005 421.749L318.991 421.78L356.515 443.444L356.554 443.364C373.048 453.223 394.686 452.511 418.399 438.82C470.093 408.975 511.999 328.906 511.999 259.981C512 222.994 499.922 196.753 480.749 184.969V184.969Z" fill="url(#paint2_linear)"/>
<path d="M493.329 346.094C524.438 273.083 516.172 199.629 474.867 182.03C433.562 164.43 374.858 209.35 343.75 282.36C312.641 355.371 320.906 428.825 362.211 446.425C403.517 464.024 462.22 419.105 493.329 346.094Z" fill="#A996EB"/>
<path d="M472.524 337.229C494.979 284.529 489.013 231.509 459.198 218.805C429.383 206.101 387.01 238.525 364.555 291.225C342.1 343.925 348.066 396.946 377.881 409.65C407.696 422.353 450.069 389.93 472.524 337.229Z" fill="#F2EFFA"/>
<path d="M428.992 318.682C433.341 308.476 432.185 298.209 426.412 295.749C420.638 293.289 412.433 299.568 408.084 309.773C403.736 319.978 404.891 330.245 410.665 332.706C416.438 335.166 424.644 328.887 428.992 318.682Z" fill="#A996EB"/>
<path d="M413.303 322.848V247.071C413.303 244.256 415.585 241.974 418.4 241.974C421.215 241.974 423.497 244.256 423.497 247.071V305.192L464.886 281.296C467.324 279.887 470.441 280.725 471.848 283.162C473.255 285.6 472.419 288.717 469.981 290.125L413.303 322.848Z" fill="#A996EB"/>
</g>
<defs>
<linearGradient id="paint0_linear" x1="150.747" y1="310.644" x2="204.823" y2="310.644" gradientUnits="userSpaceOnUse">
<stop stop-color="#CC8241"/>
<stop offset="1" stop-color="#DEA861"/>
</linearGradient>
<linearGradient id="paint1_linear" x1="87.2353" y1="70.091" x2="289.748" y2="187.013" gradientUnits="userSpaceOnUse">
<stop stop-color="#DEA861"/>
<stop offset="1" stop-color="#EBCBA0"/>
</linearGradient>
<linearGradient id="paint2_linear" x1="405.513" y1="291.948" x2="443.982" y2="225.319" gradientUnits="userSpaceOnUse">
<stop stop-color="#43386B"/>
<stop offset="1" stop-color="#7662BD"/>
</linearGradient>
<clipPath id="clip0">
<rect width="512" height="512" fill="white"/>
</clipPath>
</defs>
</svg>
