<svg id="Capa_1" enable-background="new 0 0 512 512" height="512" viewBox="0 0 512 512" width="512" xmlns="http://www.w3.org/2000/svg" xmlns:xlink="http://www.w3.org/1999/xlink"><linearGradient id="SVGID_1_" gradientUnits="userSpaceOnUse" x1="158.892" x2="215.891" y1="313.596" y2="313.596"><stop offset="0" stop-color="#cc8241"/><stop offset="1" stop-color="#dea861"/></linearGradient><linearGradient id="SVGID_2_" gradientUnits="userSpaceOnUse" x1="91.949" x2="305.406" y1="60.045" y2="183.285"><stop offset="0" stop-color="#dea861"/><stop offset="1" stop-color="#ebcba0"/></linearGradient><linearGradient id="lg1"><stop offset="0" stop-color="#43386b"/><stop offset="1" stop-color="#7662bd"/></linearGradient><linearGradient id="SVGID_3_" gradientUnits="userSpaceOnUse" x1="381.583" x2="434.626" xlink:href="#lg1" y1="376.353" y2="376.353"/><linearGradient id="SVGID_4_" gradientUnits="userSpaceOnUse" x1="381.583" x2="434.626" y1="340.33" y2="340.33"><stop offset="0" stop-color="#d7d1eb"/><stop offset="1" stop-color="#e9e5f6"/></linearGradient><linearGradient id="SVGID_5_" gradientUnits="userSpaceOnUse" x1="420.394" x2="453.487" xlink:href="#lg1" y1="231.486" y2="174.168"/><g><g><g><path d="m414.932 376.363v-258.52l-414.932 17.793v258.52c-.001 5.924 2.93 11.848 8.793 15.233l164.372 94.9c11.69 6.749 26.093 6.749 37.783 0l195.19-112.693c5.864-3.386 8.795-9.31 8.794-15.233z" fill="url(#SVGID_1_)"/><path d="m8.793 120.405 195.191-112.693c11.69-6.749 26.093-6.749 37.783 0l164.372 94.9c11.725 6.769 11.725 23.692 0 30.461l-195.19 112.693c-11.69 6.749-26.093 6.749-37.783 0l-164.372-94.9c-11.725-6.769-11.725-23.692-.001-30.461z" fill="url(#SVGID_2_)"/><path d="m72.083 83.865 209.643 121.037 55.611-32.106-209.643-121.038z" fill="#dea861"/><g fill="#cc8241"><path d="m105.321 64.659 209.643 121.037-10.893 6.289-209.644-121.037z"/><path d="m281.726 204.902v45.926l55.611-32.107v-45.925z"/></g></g></g><g><path d="m434.626 284.365-53.043 5.67v166.365l.083-.01c.422 3.085 2.531 5.984 6.391 8.213 9.589 5.536 26.338 4.842 37.41-1.551 6.372-3.679 9.467-8.442 9.127-12.879l.033-.004v-165.804z" fill="url(#SVGID_3_)"/><path d="m381.583 384.355.083-.01c.422 3.085 2.531 5.984 6.391 8.213 9.589 5.536 26.338 4.842 37.41-1.551 6.372-3.679 9.468-8.442 9.126-12.879l.033-.004v-93.759l-53.043 5.67z" fill="url(#SVGID_4_)"/><path d="m485.117 139.456.004-.008-35.329-20.339-.002.006c-13.946-7.39-31.861-6.337-51.406 4.947-44.47 25.674-80.519 94.554-80.519 153.847 0 32.598 10.911 55.481 28.112 65.24l-.012.026 32.28 18.637.033-.069c14.189 8.481 32.803 7.869 53.202-3.909 44.47-25.676 80.52-94.556 80.52-153.849 0-31.818-10.39-54.392-26.883-64.529z" fill="url(#SVGID_5_)"/><ellipse cx="431.48" cy="250.473" fill="#a996eb" rx="123.612" ry="69.933" transform="matrix(.392 -.92 .92 .392 32.059 549.429)"/><ellipse cx="431.48" cy="250.473" fill="#f2effa" rx="89.226" ry="50.479" transform="matrix(.392 -.92 .92 .392 32.059 549.43)"/></g></g></svg>