<svg id="Capa_1" enable-background="new 0 0 512 512" height="512" viewBox="0 0 512 512" width="512" xmlns="http://www.w3.org/2000/svg" xmlns:xlink="http://www.w3.org/1999/xlink"><radialGradient id="SVGID_1_" cx="836.593" cy="58.72" gradientTransform="matrix(.978 -.207 .207 .978 -555.64 247.699)" gradientUnits="userSpaceOnUse" r="202.294"><stop offset="0" stop-color="#79d3fe"/><stop offset="1" stop-color="#2f97f7"/></radialGradient><linearGradient id="lg1"><stop offset="0" stop-color="#06daae"/><stop offset=".2214" stop-color="#0ccda8"/><stop offset=".6285" stop-color="#1dab9a"/><stop offset="1" stop-color="#2f878a"/></linearGradient><radialGradient id="SVGID_2_" cx="265.255" cy="133.431" gradientUnits="userSpaceOnUse" r="511.331" xlink:href="#lg1"/><radialGradient id="SVGID_3_" cx="128.174" cy="37.237" gradientUnits="userSpaceOnUse" r="55.134" xlink:href="#lg1"/><radialGradient id="SVGID_4_" cx="273.719" cy="332.334" gradientUnits="userSpaceOnUse" r="195.627" xlink:href="#lg1"/><radialGradient id="SVGID_5_" cx="286.218" cy="116.263" gradientUnits="userSpaceOnUse" r="658.429" xlink:href="#lg1"/><linearGradient id="lg2"><stop offset="0" stop-color="#43386b"/><stop offset="1" stop-color="#7662bd"/></linearGradient><linearGradient id="SVGID_6_" gradientUnits="userSpaceOnUse" x1="341.054" x2="400.091" xlink:href="#lg2" y1="409.616" y2="409.616"/><linearGradient id="SVGID_7_" gradientUnits="userSpaceOnUse" x1="341.054" x2="400.091" y1="369.522" y2="369.522"><stop offset="0" stop-color="#d7d1eb"/><stop offset="1" stop-color="#e9e5f6"/></linearGradient><linearGradient id="SVGID_8_" gradientUnits="userSpaceOnUse" x1="384.251" x2="421.084" xlink:href="#lg2" y1="248.375" y2="184.579"/><g><g><circle cx="244.955" cy="219.166" fill="url(#SVGID_1_)" r="219.121"/><g><g><path d="m459.343 173.869c-20.446-96.77-101.846-165.006-195.547-173.057l-44.33 34.411-12.363-28.937 21.977 2.768c.363-2.882.265-5.715-.233-8.428-9.682.726-19.428 2.089-29.189 4.152-17.067 3.606-33.241 9.118-48.36 16.249 6.699 2.206 11.122 8.903 10.208 16.164l-1.933 15.343 25.615-6.041c1.329 5.936-2.504 11.797-8.474 12.959l-20.624 4.017c-1.962 15.573-16.177 26.607-31.75 24.646l-5.806-.732 1.776-14.099c-6.794-.856-12.995 3.958-13.851 10.752l-.226 1.797-3.594-.453c-14.046-1.77-26.867 8.183-28.636 22.229l-15.757-1.985-.139 1.105c-1.192 9.467 5.515 18.107 14.98 19.299-.807 6.412-6.661 10.955-13.073 10.149l-16.972-2.138c-2.125 5.028-4.065 10.141-5.814 15.331.626.223 1.283.387 1.969.473-1.428 11.337 6.604 21.684 17.94 23.112 5.153.649 9.856-3.002 10.505-8.155l1.097-8.708c10.382 1.308 19.858-6.048 21.166-16.43l.244-1.935 18.798 2.368c-1.327 10.535 6.137 20.151 16.672 21.478l5.805.731-1.044 8.293-3.643.438c-4.761.573-7.98 5.141-6.917 9.816l20.748-4.197 4.005-31.792c5.273.664 9.109 5.332 8.738 10.635l-.843 12.066c-.592 8.461 3.124 16.648 9.881 21.773l2.853 2.164 8.577-13.19c9.308 10.202 23.369 14.633 36.845 11.611l3.061-.687 2.201 9.31c1.924 8.137-3.091 16.298-11.22 18.258l-15.133 3.65-30.7-23.286c-10.654 8.71-25.51 10.13-37.621 3.597l-12.593-6.792 3.251-20.231-82.382 8.579c-.172 3.537-.889 6.941-2.07 10.126-2.872 23.398-1.997 47.661 3.149 72.016 3.646 17.256 9.243 33.598 16.489 48.86 2.616.031 5.251-.066 7.902-.326l14.272-1.402 5.535 12.913c7.659.036 13.825 6.299 13.742 13.957l-.247 22.707 9.99 7.577 2.69 15.57c28.023 24.398 62.037 41.526 98.825 49.299l8.001-6.211 6.033-47.894 56.161-43.595c5.852-4.543 3.291-13.894-4.061-14.82l-13.93-1.755c-11.753-1.481-21.708-9.375-25.826-20.483l-20.235-54.574c-2.872-7.745.868-16.377 8.481-19.581l24.951 60.717-1.985 15.757c7.737 5.868 18.238 6.525 26.645 1.665l51.452-29.74-1.39-1.911c-8.361-11.503-24.453-14.072-35.98-5.744l-7.067-9.105c-8.007-10.314-6.136-25.167 4.179-33.173l6.902 8.891c12.181 15.691 31.53 24.08 51.31 22.241l20.477 26.38 14.306 1.802-2.429 19.282 12.141 15.641-4.152 32.966c13.169 1.659 25.188-7.672 26.847-20.84l2.22-17.624c11.451 1.442 21.903-6.671 23.345-18.122l.836-6.635 19.904 2.507-.522 4.147c-.442 3.508-.197 6.941.617 10.174 16.719-39.716 21.931-84.753 12.347-130.11z" fill="url(#SVGID_2_)"/><path d="m144.538 51.513 3.652-28.994c-16.004 7.861-30.778 17.565-44.119 28.781 5.604 1.702 11.787 1.526 17.536-.892l1.264-.532-2.577 20.457c11.891 1.498 22.746-6.928 24.244-18.82z" fill="url(#SVGID_3_)"/></g><path d="m237.804 434.04c-5.27-1.971-10.692-.346-14.154 3.259 10.024.976 20.195 1.255 30.452.814 1.077-5.198.833-10.702-.95-15.987z" fill="url(#SVGID_4_)"/><path d="m385.927 359.07 3.503 4.513c3.27 4.212 9.335 4.975 13.546 1.706l-5.316-6.848 4.046-3.14c2.966-2.303 3.503-6.572 1.201-9.538z" fill="url(#SVGID_5_)"/></g></g><g><path d="m400.091 307.231-59.038 6.311v185.168l.092-.011c.47 3.434 2.817 6.661 7.113 9.141 10.673 6.162 29.315 5.389 41.638-1.726 7.092-4.095 10.538-9.396 10.158-14.335l.036-.004v-184.544z" fill="url(#SVGID_6_)"/><path d="m341.054 418.522.092-.011c.47 3.434 2.817 6.661 7.113 9.141 10.673 6.162 29.315 5.389 41.638-1.726 7.092-4.094 10.538-9.396 10.158-14.335l.036-.004v-104.356l-59.038 6.311v104.98z" fill="url(#SVGID_7_)"/><path d="m456.289 145.944.005-.009-39.323-22.638-.003.006c-15.522-8.225-35.462-7.054-57.216 5.506-49.496 28.576-89.619 105.241-89.619 171.235 0 36.283 12.144 61.752 31.289 72.613l-.013.029 35.929 20.743.037-.077c15.792 9.44 36.51 8.758 59.215-4.35 49.496-28.576 89.62-105.241 89.62-171.235 0-35.415-11.564-60.54-29.921-71.823z" fill="url(#SVGID_8_)"/><g transform="matrix(.392 -.92 .92 .392 -6.686 528.907)"><ellipse cx="396.59" cy="269.509" fill="#a996eb" rx="137.583" ry="77.837"/><ellipse cx="396.59" cy="269.509" fill="#f2effa" rx="99.311" ry="56.184"/></g></g></g></svg>