<svg width="512" height="512" viewBox="0 0 512 512" fill="none" xmlns="http://www.w3.org/2000/svg">
<g clip-path="url(#clip0)">
<path d="M426.944 377.621V116.397L7.67188 134.377V395.601C7.67088 401.587 10.6329 407.572 16.5569 410.993L182.648 506.886C194.461 513.706 209.014 513.706 220.827 506.886L418.059 393.014C423.983 389.593 426.944 383.607 426.944 377.621Z" fill="url(#paint0_linear)"/>
<path d="M16.5579 118.987L213.789 5.115C225.602 -1.705 240.155 -1.705 251.967 5.115L418.058 101.008C429.905 107.848 429.905 124.948 418.058 131.788L220.827 245.659C209.014 252.479 194.461 252.479 182.649 245.659L16.5579 149.767C4.70988 142.927 4.70988 125.827 16.5579 118.987V118.987Z" fill="url(#paint1_linear)"/>
<path d="M80.5098 82.064L292.346 204.368L348.539 171.925L136.702 49.622L80.5098 82.064Z" fill="#DEA861"/>
<path d="M114.093 62.657L325.929 184.961L314.922 191.316L103.086 69.012L114.093 62.657Z" fill="#CC8241"/>
<path d="M292.344 204.368V250.774L348.537 218.331V171.925L292.344 204.368Z" fill="#CC8241"/>
<path d="M438.253 312.565L437.951 311.896L498.166 196.409L456.304 172.672C449.63 167.627 438.81 173.875 432.136 186.626L389.662 267.78L380.336 262L342.376 240.084L341.149 239.156C340.281 238.5 339.34 238.044 338.35 237.76L338.334 237.75L338.337 237.757C331.717 235.865 322.784 242.025 316.982 253.11C310.308 265.861 310.308 280.288 316.982 285.334L362.474 319.726L316.982 406.649C310.308 419.4 310.308 433.827 316.981 438.873H316.982C317.538 439.294 318.132 439.607 318.742 439.874L360.002 463.345L416.634 360.67L432.136 372.389C432.712 372.824 433.328 373.145 433.96 373.416L433.971 373.448L476.748 397.809L438.253 312.565Z" fill="url(#paint2_linear)"/>
<path d="M405.494 344.199L362.474 319.727L316.982 406.65C310.308 419.401 310.308 433.828 316.981 438.874H316.982C317.538 439.295 318.132 439.608 318.742 439.875L360.002 463.346L405.494 344.199Z" fill="url(#paint3_linear)"/>
<path d="M456.304 172.672C449.63 167.627 438.81 173.875 432.136 186.626L389.662 267.78L429.663 298.02L498.166 196.409L456.304 172.672Z" fill="url(#paint4_linear)"/>
<path d="M499.324 197.145C492.65 192.1 481.83 198.347 475.156 211.098L429.663 298.021L384.17 263.629C377.496 258.584 366.676 264.831 360.002 277.582C353.328 290.333 353.328 304.76 360.002 309.806L405.495 344.199L360.002 431.122C353.328 443.873 353.328 458.3 360.002 463.346C366.676 468.391 377.496 462.144 384.17 449.393L429.663 362.47L475.156 396.862C481.83 401.907 492.65 395.66 499.324 382.908V382.907C505.998 370.156 505.998 355.729 499.324 350.683L453.831 316.291L499.324 229.368C505.998 216.617 505.998 202.19 499.324 197.145V197.145Z" fill="#FF4757"/>
</g>
<defs>
<linearGradient id="paint0_linear" x1="168.226" y1="314.199" x2="225.821" y2="314.199" gradientUnits="userSpaceOnUse">
<stop stop-color="#CC8241"/>
<stop offset="1" stop-color="#DEA861"/>
</linearGradient>
<linearGradient id="paint1_linear" x1="100.583" y1="57.996" x2="316.272" y2="182.524" gradientUnits="userSpaceOnUse">
<stop stop-color="#DEA861"/>
<stop offset="1" stop-color="#EBCBA0"/>
</linearGradient>
<linearGradient id="paint2_linear" x1="403.169" y1="314.501" x2="431.317" y2="265.747" gradientUnits="userSpaceOnUse">
<stop stop-color="#AB2C37"/>
<stop offset="1" stop-color="#FF959D"/>
</linearGradient>
<linearGradient id="paint3_linear" x1="385" y1="350.378" x2="307.338" y2="484.893" gradientUnits="userSpaceOnUse">
<stop stop-color="#AB2C37"/>
<stop offset="0.1833" stop-color="#B53944"/>
<stop offset="0.5224" stop-color="#D15B65"/>
<stop offset="0.9768" stop-color="#FD929A"/>
<stop offset="1" stop-color="#FF959D"/>
</linearGradient>
<linearGradient id="paint4_linear" x1="445.489" y1="225.536" x2="493.056" y2="143.148" gradientUnits="userSpaceOnUse">
<stop stop-color="#AB2C37"/>
<stop offset="1" stop-color="#FF959D"/>
</linearGradient>
<clipPath id="clip0">
<rect width="512" height="512" fill="white"/>
</clipPath>
</defs>
</svg>
